# xmcd
#
# Track frame offsets:
#	150
#	21711
#	40893
#	66636
#	95357
#	108547
#	142833
#	174659
#	210332
#
# Disc length: 3192 seconds
#
# Revision: 1
# Processed by: cddbd v1.5.2PL0 Copyright (c) Steve Scherf et al.
# Submitted via: audiograbber 1.83.01
#
DISCID=810c7609
DTITLE=Bernhoft, Jarle - 2: Band @ Rockefeller Music Hall Oslo
DYEAR=2010
DGENRE=Soul
TTITLE0=On patience
TTITLE1=Rats and raccoons
TTITLE2=So many faces
TTITLE3=Sing hello and some more
TTITLE4=On individuality
TTITLE5=Prayer to a landlord
TTITLE6=Firm and deep
TTITLE7=In the street where the world passes me by
TTITLE8=Them changes
EXTD=
EXTT0=
EXTT1=
EXTT2=
EXTT3=
EXTT4=
EXTT5=
EXTT6=
EXTT7=
EXTT8=
PLAYORDER=
